<!DOCTYPE svg PUBLIC "-//W3C//DTD SVG 1.1//EN" "http://www.w3.org/Graphics/SVG/1.1/DTD/svg11.dtd">
<!-- Uploaded to: SVG Repo, www.svgrepo.com, Transformed by: SVG Repo Mixer Tools -->
<svg fill="#ffffff" version="1.1" id="Capa_1" xmlns="http://www.w3.org/2000/svg" xmlns:xlink="http://www.w3.org/1999/xlink" width="800px" height="800px" viewBox="0 0 45.735 45.735" xml:space="preserve" stroke="#ffffff">
<g id="SVGRepo_bgCarrier" stroke-width="0"/>
<g id="SVGRepo_tracerCarrier" stroke-linecap="round" stroke-linejoin="round"/>
<g id="SVGRepo_iconCarrier"> <g> <g> <path d="M39.59,44.284l-6.981-15.702c-0.166-0.373-0.535-0.609-0.941-0.609H14.083c-0.407,0-0.777,0.236-0.942,0.609L6.146,44.285 c-0.143,0.318-0.114,0.688,0.076,0.98c0.191,0.293,0.517,0.47,0.867,0.47l5.847-0.007c0.529,0,0.97-0.4,1.024-0.926 c0.462-4.517,4.277-8.039,8.916-8.039s8.455,3.521,8.917,8.039c0.054,0.524,0.496,0.926,1.023,0.926l5.831,0.007 c0.35,0,0.675-0.177,0.866-0.47C39.702,44.973,39.732,44.604,39.59,44.284z"/> <path d="M15.767,25.943h14.241c0.321,0,0.624-0.155,0.817-0.409c0.196-0.255,0.262-0.589,0.179-0.897l-6.25-23.252 C24.534,0.567,23.794,0,22.948,0h-0.121c-0.846,0-1.586,0.565-1.806,1.382l-6.25,23.252c-0.083,0.31-0.018,0.646,0.178,0.899 C15.144,25.789,15.446,25.943,15.767,25.943z"/> </g> </g> </g>
</svg>