<!DOCTYPE svg PUBLIC "-//W3C//DTD SVG 1.1//EN" "http://www.w3.org/Graphics/SVG/1.1/DTD/svg11.dtd">
<!-- Uploaded to: SVG Repo, www.svgrepo.com, Transformed by: SVG Repo Mixer Tools -->
<svg fill="#ffffff" version="1.1" id="Capa_1" xmlns="http://www.w3.org/2000/svg" xmlns:xlink="http://www.w3.org/1999/xlink" width="800px" height="800px" viewBox="0 0 378.686 378.686" xml:space="preserve" stroke="#ffffff">
<g id="SVGRepo_bgCarrier" stroke-width="0"/>
<g id="SVGRepo_tracerCarrier" stroke-linecap="round" stroke-linejoin="round"/>
<g id="SVGRepo_iconCarrier"> <g> <g id="Artwork_35_"> <g id="Layer_5_35_"> <path d="M295.318,56.09c-19.924,0-32.568,22.216-35.56,22.216c-2.62,0-14.746-22.216-35.566-22.216 c-20.251,0-36.79,16.7-37.87,36.931c-0.613,11.422,3.073,20.116,8.263,27.993c10.367,15.731,55.703,53.611,65.241,53.611 c9.737,0,54.665-37.739,65.104-53.611c5.203-7.913,8.874-16.571,8.263-27.993C332.111,72.79,315.573,56.09,295.318,56.09z"/> </g> <path d="M267.751,374.6l-42.355-59.07c-2.138-2.988-1.252-3.018-0.976-3.217c1.589-1.133,2.588-2.672,2.588-4.377v-13.662 c0-3.457-4.029-6.286-8.952-6.286h-8.743c-1.317,0-1.425-1.209-1.571-1.875l-20.431-93.384c-0.057-0.469-0.372-0.996,0.802-1.142 c5.275-0.896,9.23-4.238,9.23-8.207v-18.365c0-4.648-5.415-8.451-12.034-8.451h-4.051c-1.045,0-1.038-0.678-1.099-1.02 c-4.479-25.666-9.673-69.059-13.456-103.072c-0.026-0.227-0.133-0.674,0.388-0.674h3.077c3.088,0,5.614-1.967,5.614-4.367v-9.492 c0-2.402-2.526-4.369-5.614-4.369h-4.79c-0.835,0-0.815-0.688-0.851-1.029c-1.907-17.791-3.11-29.865-3.11-29.865 C161.458,1.219,159.352,0,156.799,0c-2.595,0-4.703,1.219-4.703,2.676c0,0-1.099,11.457-3.021,29.809c0,0,0.049,1.086-1.372,1.086 c-1.005,0-4.021,0-4.021,0c-3.087,0-5.614,1.967-5.614,4.369v9.492c0,2.4,2.527,4.367,5.614,4.367h2.769 c0.564,0,0.525,0.412,0.502,0.619c-3.699,34.063-8.798,77.539-13.259,103.166c-0.057,0.33-0.028,0.98-1.157,0.98h-3.995 c-6.618,0-12.033,3.803-12.033,8.451v12.135c0,0.031-0.005,0.063-0.005,0.094c0,0.021,0.005,0.043,0.005,0.063v6.074 c0,3.656,3.357,6.779,8.01,7.951c1.697,0.35,2.171,0.555,2.127,0.914l-20.503,93.895c-0.143,0.656-0.506,1.847-1.682,1.847h-8.665 c-4.923,0-8.953,2.829-8.953,6.286v13.662c0,1.996,0.48,3.199,2.56,4.355c0.977,0.666-0.275,2.275-0.993,3.277l-42.312,59.029 c-1.611,2.248-0.223,4.088,3.086,4.088h46.104c3.309,0,6.225-2.1,6.481-4.668c0,0-5.564-44.691,55.119-45.252 c60.753,0.561,55.188,45.252,55.188,45.252c0.255,2.568,3.172,4.668,6.481,4.668h46.109 C267.976,378.686,269.364,376.846,267.751,374.6z M138.375,224.469h37.102c2.207,0,4.197,1.397,4.426,3.104l7.2,53.996 c0.229,1.709-1.391,3.103-3.597,3.103h-53.16c-2.206,0-3.824-1.395-3.597-3.103l7.201-53.996 C134.178,225.866,136.168,224.469,138.375,224.469z"/> </g> </g> </g>
</svg>