<!DOCTYPE svg PUBLIC "-//W3C//DTD SVG 1.1//EN" "http://www.w3.org/Graphics/SVG/1.1/DTD/svg11.dtd">
<!-- Uploaded to: SVG Repo, www.svgrepo.com, Transformed by: SVG Repo Mixer Tools -->
<svg height="800px" width="800px" version="1.1" id="Layer_1" xmlns="http://www.w3.org/2000/svg" xmlns:xlink="http://www.w3.org/1999/xlink" viewBox="0 0 512 512" xml:space="preserve" fill="#ffffff" stroke="#ffffff">
<g id="SVGRepo_bgCarrier" stroke-width="0"/>
<g id="SVGRepo_tracerCarrier" stroke-linecap="round" stroke-linejoin="round"/>
<g id="SVGRepo_iconCarrier"> <g> <path style="fill:#FF8163;" d="M370.228,104.249c-1.27,0-2.488-0.504-3.387-1.402L333.8,69.794 c-4.671-4.668-7.242-10.875-7.242-17.478c0-6.602,2.572-12.81,7.243-17.479c4.671-4.669,10.88-7.24,17.487-7.24 c6.606,0,12.817,2.571,17.486,7.24l1.452,1.451l1.451-1.451c4.671-4.669,10.881-7.24,17.487-7.24c6.606,0,12.817,2.571,17.487,7.24 c4.671,4.669,7.243,10.876,7.243,17.479s-2.573,12.811-7.243,17.479l-33.04,33.052 C372.717,103.745,371.498,104.249,370.228,104.249z"/> <path style="fill:#FF8163;" d="M142.287,180.394c-1.053,0-2.064-0.418-2.809-1.163l-27.405-27.415 c-3.874-3.872-6.007-9.021-6.007-14.497c0-5.477,2.133-10.626,6.008-14.498c3.873-3.872,9.024-6.005,14.503-6.005 c5.479,0,10.63,2.133,14.503,6.005l1.205,1.204l1.205-1.204c3.873-3.872,9.024-6.005,14.503-6.005 c5.479,0,10.63,2.133,14.504,6.005c3.874,3.872,6.008,9.021,6.008,14.498c0,5.476-2.134,10.625-6.008,14.497l-27.405,27.415 C144.353,179.975,143.342,180.394,142.287,180.394z"/> <path style="fill:#FF8163;" d="M385.572,308.791c-1.052,0-2.064-0.418-2.809-1.163l-27.405-27.415 c-3.874-3.872-6.007-9.021-6.007-14.497c0-5.477,2.133-10.626,6.008-14.498c3.873-3.872,9.024-6.005,14.503-6.005 c5.478,0,10.63,2.133,14.503,6.005l1.204,1.204l1.205-1.204c3.874-3.872,9.024-6.005,14.503-6.005c5.48,0,10.63,2.133,14.505,6.005 c3.874,3.872,6.008,9.021,6.008,14.498c0,5.476-2.134,10.625-6.008,14.497l-27.405,27.415 C387.638,308.373,386.626,308.791,385.572,308.791z"/> </g> <g style="opacity:0.1;"> <path d="M355.83,69.794c-4.671-4.668-7.242-10.875-7.242-17.478c0-6.602,2.571-12.81,7.243-17.479 c1.923-1.922,4.109-3.482,6.472-4.659c-3.38-1.683-7.127-2.581-11.014-2.581c-6.607,0-12.817,2.571-17.487,7.24 c-4.672,4.669-7.243,10.876-7.243,17.479s2.572,12.811,7.242,17.478l33.041,33.053c0.899,0.898,2.117,1.402,3.387,1.402 c1.271,0,2.489-0.504,3.387-1.402l7.628-7.631L355.83,69.794z"/> </g> <g style="opacity:0.1;"> <path d="M134.104,151.815c-3.874-3.872-6.007-9.021-6.007-14.497c0-5.477,2.133-10.626,6.008-14.498 c1.07-1.069,2.244-1.992,3.489-2.788c-3.262-2.086-7.049-3.217-11.014-3.217c-5.479,0-10.63,2.133-14.503,6.005 c-3.876,3.872-6.008,9.021-6.008,14.498c0,5.476,2.133,10.625,6.007,14.497l27.405,27.415c0.745,0.745,1.755,1.163,2.809,1.163 c1.053,0,2.066-0.418,2.809-1.163l8.206-8.209L134.104,151.815z"/> </g> <g style="opacity:0.1;"> <path d="M377.389,280.213c-3.876-3.872-6.008-9.021-6.008-14.497c0-5.477,2.133-10.626,6.009-14.498 c1.07-1.069,2.244-1.992,3.489-2.788c-3.262-2.086-7.049-3.217-11.014-3.217c-5.479,0-10.63,2.133-14.503,6.005 c-3.876,3.872-6.008,9.021-6.008,14.498c0,5.476,2.133,10.625,6.007,14.497l27.405,27.415c0.745,0.745,1.755,1.163,2.809,1.163 c1.054,0,2.066-0.418,2.81-1.163l8.207-8.209L377.389,280.213z"/> </g> <path style="fill:#CCCCCC;" d="M390.031,489.241c-18.593-37.014-36.469-79.323-53.137-125.751 c-28.157-78.431-52.339-167.696-69.936-258.144c-1.025-5.263-5.617-9.063-10.956-9.063c-5.34,0-9.931,3.8-10.956,9.063 c-17.593,90.447-41.777,179.713-69.935,258.146c-16.668,46.429-34.545,88.737-53.137,125.749c-1.745,3.477-1.57,8.247,0.46,11.563 c2.031,3.315,5.631,5.972,9.506,5.972h26.882c5.782,0,10.609-5.071,11.118-10.861c1.894-21.48,11.7-41.727,27.606-56.436 c16.001-14.796,36.76-23.1,58.454-23.1c21.695,0,42.454,8.067,58.453,22.86c15.908,14.709,25.711,35.235,27.606,56.714 c0.51,5.789,5.336,10.821,11.118,10.821h26.883c3.876,0,7.475-2.656,9.506-5.972C391.6,497.491,391.775,492.718,390.031,489.241z M284.214,353.176h-54.335v-45.447c0-15.449,11.787-27.974,27.167-27.974c15.38,0,27.167,12.525,27.167,27.974V353.176z"/> <g style="opacity:0.1;"> <path d="M144.26,500.499c-2.031-3.315-2.205-7.78-0.461-11.257c18.592-37.012,36.468-79.32,53.137-125.749 c28.158-78.433,52.341-167.699,69.935-258.146c0.012-0.062,0.03-0.119,0.043-0.179c-1.093-5.169-5.635-8.884-10.912-8.884 c-5.34,0-9.931,3.8-10.956,9.063c-17.593,90.447-41.777,179.713-69.935,258.146c-16.668,46.429-34.545,88.737-53.137,125.749 c-1.745,3.477-1.57,7.941,0.46,11.257c2.031,3.314,5.631,5.665,9.506,5.665h21.825C149.891,506.164,146.291,503.813,144.26,500.499 z"/> </g> <path style="fill:#999999;" d="M255.973,51.738c-4.395,0-7.959-3.563-7.959-7.958V7.959c0-4.396,3.563-7.959,7.959-7.959 c4.396,0,7.959,3.563,7.959,7.959V43.78C263.932,48.174,260.369,51.738,255.973,51.738z"/> <path style="fill:#CCCCCC;" d="M274.315,87.96c0,4.625-3.732,8.357-8.337,8.357h-20.01c-4.605,0-8.337-3.732-8.337-8.357V49.766 c0-4.625,3.732-8.375,8.337-8.375h20.01c4.604,0,8.337,3.75,8.337,8.375V87.96z"/> <g> <path style="fill:#999999;" d="M362.953,372.138c0,3.298-2.661,5.971-5.942,5.971H154.937c-3.283,0-5.943-2.674-5.943-5.971 v-19.105c0-3.298,2.66-5.971,5.943-5.971h202.074c3.281,0,5.942,2.674,5.942,5.971L362.953,372.138L362.953,372.138z"/> <path style="fill:#999999;" d="M197.37,506.394c0,3.096-2.5,5.606-5.582,5.606H95.79c-3.082,0-5.582-2.51-5.582-5.606v-15.7 c0-3.096,2.499-5.606,5.582-5.606h95.998c3.081,0,5.582,2.51,5.582,5.606L197.37,506.394L197.37,506.394z"/> <path style="fill:#999999;" d="M421.737,506.394c0,3.096-2.497,5.606-5.58,5.606h-95.998c-3.083,0-5.583-2.51-5.583-5.606v-15.7 c0-3.096,2.499-5.606,5.583-5.606h95.998c3.082,0,5.58,2.51,5.58,5.606L421.737,506.394L421.737,506.394z"/> </g> <path style="opacity:0.1;enable-background:new ;" d="M123.359,506.394v-15.7c0-3.096,2.499-5.606,5.581-5.606H95.79 c-3.082,0-5.582,2.51-5.582,5.606v15.7c0,3.096,2.499,5.606,5.582,5.606h33.15C125.858,512,123.359,509.49,123.359,506.394z"/> <path style="opacity:0.1;enable-background:new ;" d="M347.727,506.394v-15.7c0-3.096,2.499-5.606,5.582-5.606h-33.15 c-3.083,0-5.583,2.51-5.583,5.606v15.7c0,3.096,2.499,5.606,5.583,5.606h33.15C350.226,512,347.727,509.49,347.727,506.394z"/> <path style="fill:#999999;" d="M315.407,231.242c0,3.299-2.661,5.971-5.943,5.971h-106.98c-3.283,0-5.943-2.672-5.943-5.971v-19.104 c0-3.298,2.661-5.969,5.943-5.969h106.98c3.282,0,5.943,2.672,5.943,5.969V231.242z"/> <path style="opacity:0.1;enable-background:new ;" d="M181.814,372.138v-19.105c0-3.298,2.66-5.971,5.943-5.971h-32.819 c-3.283,0-5.943,2.674-5.943,5.971v19.105c0,3.298,2.66,5.971,5.943,5.971h32.819C184.474,378.11,181.814,375.436,181.814,372.138z"/> <path style="opacity:0.1;enable-background:new ;" d="M229.36,231.242v-19.104c0-3.298,2.661-5.969,5.944-5.969h-32.819 c-3.283,0-5.943,2.672-5.943,5.969v19.104c0,3.299,2.661,5.971,5.943,5.971h32.819C232.021,237.213,229.36,234.54,229.36,231.242z"/> <g> <path style="fill:#999999;" d="M189.149,392.621H164.28c-2.066,5.37-4.146,10.676-6.242,15.917h31.112 c4.396,0,7.959-3.563,7.959-7.958C197.108,396.185,193.545,392.621,189.149,392.621z"/> <path style="fill:#999999;" d="M265.303,79.6h17.414c3.283,0,5.944,2.673,5.944,5.969v15.523c0,3.298-2.661,5.971-5.944,5.971 h-53.489c-3.282,0-5.943-2.673-5.943-5.971V85.57c0-3.297,2.661-5.969,5.943-5.969h13.761H265.303z"/> </g> <path style="opacity:0.1;enable-background:new ;" d="M245.391,101.093V85.57c0-3.297,2.661-5.969,5.943-5.969h-8.344h-13.761 c-3.282,0-5.943,2.673-5.943,5.969v15.523c0,3.298,2.661,5.971,5.943,5.971h22.105C248.052,107.063,245.391,104.391,245.391,101.093 z"/> <g> <path style="fill:#999999;" d="M235.866,149.709c-1.165,5.316-2.351,10.623-3.559,15.917h47.39 c-1.208-5.295-2.394-10.6-3.559-15.917H235.866z"/> <path style="fill:#999999;" d="M281.716,174.378h-51.428c-1.24,5.32-2.499,10.626-3.781,15.917h58.991 C284.217,185.003,282.957,179.697,281.716,174.378z"/> <path style="fill:#999999;" d="M265.021,263.694c0-4.396-3.563-7.959-7.959-7.959h-47.665c-1.5,5.332-3.02,10.638-4.558,15.917 h52.223C261.458,271.652,265.021,268.088,265.021,263.694z"/> <path style="fill:#999999;" d="M302.607,255.735h-13.711c-4.396,0-7.959,3.563-7.959,7.959c0,4.396,3.563,7.959,7.959,7.959h18.269 C305.628,266.373,304.109,261.067,302.607,255.735z"/> <path style="fill:#999999;" d="M195.885,301.364h34.307c1.466-6.448,5.11-12.038,10.133-15.917h-39.571 C199.15,290.785,197.527,296.091,195.885,301.364z"/> <path style="fill:#999999;" d="M311.252,285.447H273.8c5.024,3.879,8.666,9.47,10.133,15.917h32.188 C314.479,296.091,312.857,290.785,311.252,285.447z"/> <path style="fill:#999999;" d="M319.806,313.036h-35.153v15.917h40.334C323.242,323.685,321.513,318.38,319.806,313.036z"/> <path style="fill:#999999;" d="M229.473,328.953v-15.917H192.2c-1.708,5.345-3.436,10.65-5.181,15.917H229.473z"/> <path style="fill:#999999;" d="M347.726,392.621H219.923c-4.396,0-7.959,3.563-7.959,7.959c0,4.395,3.563,7.958,7.959,7.958 h134.045C351.871,403.298,349.791,397.991,347.726,392.621z"/> <path style="fill:#999999;" d="M145.231,439.312h52.334c7.268-6.719,15.525-12.065,24.399-15.917h-69.98 C149.749,428.776,147.497,434.082,145.231,439.312z"/> <path style="fill:#999999;" d="M360.021,423.395h-69.814c8.817,3.822,17.021,9.125,24.248,15.807 c0.039,0.036,0.074,0.074,0.113,0.11h52.206C364.508,434.082,362.257,428.776,360.021,423.395z"/> <path style="fill:#999999;" d="M131.302,470.085h44.891c2.298-5.579,5.161-10.917,8.571-15.917h-46.103 C136.224,459.566,133.769,464.869,131.302,470.085z"/> </g> </g>
</svg>